<?xml version="1.0" encoding="utf-8"?>
<!-- Generator: Adobe Illustrator 21.0.2, SVG Export Plug-In . SVG Version: 6.00 Build 0)  -->
<svg version="1.1" id="Capa_1" xmlns="http://www.w3.org/2000/svg" xmlns:xlink="http://www.w3.org/1999/xlink" x="0px" y="0px"
	 viewBox="0 0 481.9 109.5" style="enable-background:new 0 0 481.9 109.5;" xml:space="preserve">
<style type="text/css">
	.st0{fill:url(#SVGID_1_);}
	.st1{font-family:'Arial-BoldMT';}
	.st2{font-size:20.8903px;}
</style>
<g>
	
		<radialGradient id="SVGID_1_" cx="91.4267" cy="40.0123" r="20.9945" gradientTransform="matrix(6.123234e-17 -1 0.8 4.898587e-17 59.4168 131.439)" gradientUnits="userSpaceOnUse">
		<stop  offset="0" style="stop-color:#E2C25D"/>
		<stop  offset="0.5846" style="stop-color:#AE7E30"/>
		<stop  offset="0.8536" style="stop-color:#CC9745;stop-opacity:0.987"/>
		<stop  offset="1" style="stop-color:#DEA651;stop-opacity:0.98"/>
	</radialGradient>
	<path class="st0" d="M90.1,14.9c-32.6,24.3-0.3,50.5,0.3,50.1C128.7,42.3,90.1,14.9,90.1,14.9z M90.3,61.4
		c-0.4,0.3-20.2-18.6-0.2-36.1C90.1,25.3,113.9,45,90.3,61.4z"/>
	<path d="M65.7,44.9C67.1,72.4,94,64,94,63.5C95.5,33.4,65.7,44.9,65.7,44.9z M91.9,62.2c0,0.3-18.1,4.4-20.4-13.4
		C71.5,48.8,91.5,42.7,91.9,62.2z"/>
	<path d="M228,17.1h-8.7l-38.9,60.7h14.2l10.2-15.9h37.2l10.1,15.9h13.5L228,17.1z M210.4,51.5L224,31.6l12.6,19.9H210.4z"/>
	<polygon points="352.9,17.8 364.7,17.8 364.7,68.7 412.2,68.7 412.2,78.6 352.9,78.6 	"/>
	<polygon points="278.8,17.8 290.7,17.8 290.7,68.7 338.1,68.7 338.1,78.6 278.8,78.6 	"/>
	<text transform="matrix(1.1377 0 0 1 326.0139 97.4298)" class="st1 st2">STUDIO</text>
	<path d="M150.4,31.5c0,0-28.1-11.5-50.3,3c-11.3,13-7.4,35.2,27.6,34.8c0,0,27.2,0.4,30-12.8c-11.3,0.4-17.2,0.2-17.2,0.2
		l-0.2-10.9l27.9,0.2c0,0,10.9,33.9-39,33.5c-50-0.4-45.1-32-45.1-32s0.7-30,40.3-30.4c0,0,13.1-1.1,27.8,4.1L150.4,31.5z"/>
</g>
</svg>
