<svg width="32" height="32" xmlns="http://www.w3.org/2000/svg">

 <g>
  <title>background</title>
  <rect fill="none" id="canvas_background" height="402" width="582" y="-1" x="-1"/>
 </g>
 <g>
  <title>Layer 1</title>
  <path id="svg_1" fill="#ffffff" d="m16,0c-8.836,0 -16,7.163 -16,16c0,8.836 7.164,16 16,16c8.837,0 16,-7.164 16,-16c0,-8.837 -7.163,-16 -16,-16zm0,30c-7.732,0 -14,-6.268 -14,-14s6.268,-14 14,-14c7.732,0 14,6.268 14,14s-6.268,14 -14,14z"/>
  <path id="svg_2" fill="#ffffff" d="m22.285,17.393l-5.275,5.2l0,-15.593c0,-0.552 -0.452,-1 -1.01,-1c-0.558,0 -1.01,0.448 -1.01,1l0,15.593l-5.275,-5.2c-0.394,-0.39 -1.034,-0.39 -1.428,0c-0.394,0.391 -0.394,1.024 0,1.414l6.999,6.899c0.187,0.187 0.45,0.294 0.714,0.294c0.263,0 0.526,-0.108 0.714,-0.293l6.999,-6.899c0.395,-0.391 0.394,-1.024 0,-1.414c-0.394,-0.391 -1.034,-0.391 -1.428,-0.001z"/>
 </g>
</svg>