<?xml version="1.0" encoding="utf-8"?>
<!-- Generator: Adobe Illustrator 21.0.2, SVG Export Plug-In . SVG Version: 6.00 Build 0)  -->
<svg version="1.1" id="Layer_1" xmlns="http://www.w3.org/2000/svg" xmlns:xlink="http://www.w3.org/1999/xlink" x="0px" y="0px"
	 viewBox="0 0 32 22.4" style="enable-background:new 0 0 32 22.4;" xml:space="preserve">
<style type="text/css">
	.st0{fill:none;stroke:#FFFFFF;stroke-width:2;stroke-linecap:round;stroke-linejoin:round;stroke-miterlimit:10;}
	.st1{fill:#FFFFFF;}
</style>
<g>
	<polyline class="st0" points="649,132.9 675,132.9 675,150.9 661,150.9 	"/>
	<polyline class="st0" points="653,150.9 649,150.9 649,136.9 	"/>
	<polyline class="st0" points="661,150.9 653,156.9 653,150.9 	"/>
</g>
<g>
	<g>
		<path class="st1" d="M16,19.9c-4.3,0-8.3-1.8-11.4-5.1c-0.4-0.4-0.4-1,0-1.4c0.4-0.4,1-0.4,1.4,0c2.7,2.9,6.2,4.5,9.9,4.5
			c4.8,0,9.1-2.6,11.8-7c-2.7-4.4-7.1-7-11.8-7c-4.9,0-9.5,2.8-12.1,7.5C3.6,11.8,3,12,2.5,11.7c-0.5-0.3-0.6-0.9-0.4-1.4
			C5.1,5,10.3,1.9,16,1.9c5.7,0,10.9,3.2,13.9,8.5c0.2,0.3,0.2,0.7,0,1C26.9,16.7,21.7,19.9,16,19.9z"/>
	</g>
	<g>
		<path class="st1" d="M16,15.9c-2.8,0-5-2.2-5-5s2.2-5,5-5s5,2.2,5,5S18.8,15.9,16,15.9z M16,7.9c-1.7,0-3,1.3-3,3s1.3,3,3,3
			s3-1.3,3-3S17.7,7.9,16,7.9z"/>
	</g>
</g>
</svg>
